# xmcd CD database file
#
# Track frame offsets:
#	183
#	13813
#	26110
#	40033
#	50470
#	62030
#	74245
#	88000
#	97940
#	111303
#	123645
#	133180
#	147533
#	161363
#	177873
#	189705
#	214995
#	238708
#	252085
#	264560
#
# Disc length: 3754 seconds
#
# Revision: 0
# Processed by: cddbd v1.5.1PL2 Copyright (c) Steve Scherf et al.
# Submitted via: Feurio! 1.65 - http://www.feurio.com
#
DISCID=320ea814
DTITLE=Various Artist - Charly Blues Masterworks: Disc 2 - Blues Kings Of Chicago
DYEAR=1900
DGENRE=Blues
TTITLE0=Sonny Boy Williamson I - Good Morning Little Schoolgirl
TTITLE1=Little Walter - Juke
TTITLE2=Eddie Boyd - Rattin' And Runnin' Round
TTITLE3=Jimmy Reed - I Ain't Got You
TTITLE4=Little Walter - My Babe
TTITLE5=Billy Boy Arnold - I Wish You Would
TTITLE6=Howlin' Wolf - Smokestack Lightnin'
TTITLE7=Howlin' Wolf - The Natchez Burnin'
TTITLE8=Magic Sam - All Your Love
TTITLE9=Magic Sam - 21 Days In Jail
TTITLE10=Memphis Slim - Rockin' The House
TTITLE11=Otish Rush - So Many Roads, So Many Trains
TTITLE12=Albert King - Searching For A Woman
TTITLE13=Muddy Waters - Got My Mojo Working
TTITLE14=Sonny Boy Williamson - Bring It On Home
TTITLE15=The Super Super Blues Band - I'm A Man
TTITLE16=Howlin' Wolf - Killing Floor
TTITLE17=Howlin' Wolf - Highway 49
TTITLE18=Muddy Waters - Can't Get No Grindin' (What's The Matter With The Mill)
TTITLE19=Muddy Waters - After Hours
EXTD=
EXTT0=
EXTT1=
EXTT2=
EXTT3=
EXTT4=
EXTT5=
EXTT6=
EXTT7=
EXTT8=
EXTT9=
EXTT10=
EXTT11=
EXTT12=
EXTT13=
EXTT14=
EXTT15=
EXTT16=
EXTT17=
EXTT18=
EXTT19=
PLAYORDER=
